# Blender v2.90.1 OBJ File: 'arcademachine.blend'
# www.blender.org
mtllib arcademachine.mtl
o Cube
v 1.000000 1.000000 -1.000000
v 1.000000 -1.000000 -1.000000
v -1.000000 1.000000 -1.000000
v -1.000000 -1.000000 -1.000000
v 0.999877 1.682853 -0.999977
v -1.000000 1.682738 -1.000000
v 1.562194 1.000000 -1.000000
v 1.562194 1.682738 -1.000000
v 1.000000 3.156591 -1.000000
v -1.000000 3.156591 -1.000000
v -1.000000 3.672190 -1.000000
v 0.927933 3.672190 -1.000000
v 0.728744 3.156451 -1.000011
v 0.929903 3.159912 -0.999983
v 0.997736 3.160173 -0.999391
v 0.987842 3.160190 0.002076
v 0.997736 3.160173 -0.999391
v 0.987842 3.160190 0.002076
v 0.997736 3.160173 -0.999391
v 0.987842 3.160190 0.002076
v 0.928642 3.673473 -1.000211
v 0.677746 3.287199 0.002544
v 0.988432 3.159536 -1.001834
v 0.988432 3.159536 -0.001834
v 0.725682 3.156112 -0.999125
v -1.000000 1.955533 -1.000000
v 1.690941 1.000000 -1.000000
v 1.690941 1.682738 -1.000000
v 1.000000 1.000000 1.000000
v 1.000000 -1.000000 1.000000
v -1.000000 1.000000 1.000000
v -1.000000 -1.000000 1.000000
v 0.999877 1.682853 0.999977
v -1.000000 1.682738 1.000000
v 1.562194 1.000000 1.000000
v 1.562194 1.682738 1.000000
v 1.000000 3.156591 1.000000
v -1.000000 3.156591 1.000000
v -1.000000 3.672190 1.000000
v 1.000000 1.000000 0.000000
v 0.927933 3.672190 1.000000
v 0.728744 3.156451 1.000011
v -1.000000 -1.000000 0.000000
v -1.000000 1.000000 0.000000
v 1.000000 -1.000000 0.000000
v 1.000000 1.682738 0.000000
v -1.000000 1.682738 0.000000
v 1.562194 1.000000 0.000000
v 1.562194 1.682738 0.000000
v -1.000000 3.156591 0.000000
v -1.000000 3.672190 0.000000
v 0.919206 3.672190 0.000000
v 0.929903 3.159912 0.999983
v 0.921176 3.159912 0.000000
v 0.997736 3.160173 0.999391
v 0.987842 3.160190 -0.002076
v 0.997736 3.160173 0.999391
v 0.987842 3.160190 -0.002076
v 0.997736 3.160173 0.999391
v 0.987842 3.160190 -0.002076
v 0.922705 3.673843 0.000000
v 0.928642 3.673473 1.000211
v 0.677746 3.287199 -0.002544
v 0.988432 3.159536 1.001834
v 0.988432 3.159536 0.001834
v 0.725682 3.156112 0.999125
v -1.000000 1.955533 1.000000
v 1.690941 1.000000 1.000000
v 1.690941 1.682738 1.000000
v 1.690941 1.000000 0.000000
v 1.690941 1.682738 0.000000
vt 0.591365 0.518836
vt 0.000000 0.518836
vt 0.000000 0.354582
vt 0.591329 0.354554
vt 0.648577 0.000000
vt 0.648577 0.352207
vt 0.472856 0.352214
vt 0.472856 0.000007
vt 0.000000 1.000000
vt 0.591365 1.000000
vt 0.757596 0.354582
vt 0.757596 0.518836
vt 0.923247 0.880141
vt 0.923247 0.703998
vt 0.945839 0.704016
vt 0.945839 0.880159
vt 0.824596 0.880064
vt 0.824596 0.703920
vt 0.121413 0.732237
vt 0.169079 0.732212
vt 0.472856 0.732237
vt 0.472856 0.823066
vt 0.134077 0.823066
vt 1.000000 0.690043
vt 0.824279 0.691580
vt 0.824279 0.351950
vt 1.000000 0.351950
vt 0.511159 0.000034
vt 0.000000 0.288953
vt 0.000000 0.000000
vt 0.472856 0.472447
vt 0.648577 0.472440
vt 0.648577 0.731990
vt 0.472856 0.731997
vt 0.472856 0.520487
vt 0.648577 0.822789
vt 0.472856 0.822796
vt 0.795664 0.240576
vt 0.795701 0.000000
vt 0.961932 0.000000
vt 0.961932 0.240582
vt 0.824296 0.000042
vt 0.824296 0.351950
vt 0.648577 0.351908
vt 0.648577 0.000000
vt 0.824279 0.351950
vt 0.824279 0.703782
vt 0.648577 0.703920
vt 0.648577 0.352088
vt 0.180455 0.823082
vt 0.180455 0.999250
vt 0.090527 0.999235
vt 0.090527 0.823066
vt 0.945730 0.176430
vt 0.945730 0.000260
vt 0.957448 0.000000
vt 0.957650 0.176430
vt 0.000000 0.000000
vt 0.000000 0.000000
vt 0.000000 0.000000
vt 0.000000 0.000000
vt 0.000000 0.000000
vt 0.000000 0.000000
vt 0.090527 0.999572
vt 0.000044 0.999490
vt 0.000000 0.823066
vt 0.090527 0.823423
vt 0.648881 0.704119
vt 0.824596 0.703920
vt 0.824596 0.965498
vt 0.648577 0.989195
vt 0.592685 1.000000
vt 0.602315 0.823228
vt 0.648390 0.822796
vt 0.648390 0.998940
vt 0.997538 0.240582
vt 0.997538 0.481163
vt 0.795664 0.481163
vt 0.795664 0.240582
vt 0.795664 0.354582
vt 0.795664 0.518836
vt 1.000000 0.000000
vt 1.000000 0.240582
vt 0.591365 0.518836
vt 0.591329 0.354554
vt 0.000000 0.354582
vt 0.000000 0.518836
vt 0.472856 0.000007
vt 0.472856 0.352214
vt 0.000000 1.000000
vt 0.591365 1.000000
vt 0.757596 0.518836
vt 0.757596 0.354582
vt 0.945839 0.704016
vt 0.923247 0.703998
vt 0.824596 0.703920
vt 0.121413 0.732237
vt 0.134077 0.823066
vt 0.472856 0.823066
vt 0.472856 0.732237
vt 0.169079 0.732212
vt 0.824279 0.351950
vt 0.824279 0.691580
vt 0.511159 0.000034
vt 0.000000 0.000000
vt 0.000000 0.288953
vt 0.472856 0.472447
vt 0.472856 0.520487
vt 0.472856 0.731997
vt 0.472856 0.822796
vt 0.795664 0.240576
vt 0.961932 0.240582
vt 0.824296 0.000042
vt 0.824296 0.351950
vt 0.824279 0.351950
vt 0.824279 0.703782
vt 0.180455 0.823082
vt 0.090527 0.823066
vt 0.945730 0.176430
vt 0.957650 0.176430
vt 0.957448 0.000000
vt 0.000000 0.000000
vt 0.000000 0.000000
vt 0.000000 0.000000
vt 0.000000 0.000000
vt 0.000000 0.000000
vt 0.000000 0.000000
vt 0.090527 0.999572
vt 0.000000 0.823066
vt 0.000044 0.999490
vt 0.648577 0.989195
vt 0.824596 0.965498
vt 0.824596 0.703920
vt 0.592685 1.000000
vt 0.648390 0.998940
vt 0.648390 0.822796
vt 0.602315 0.823228
vt 0.795664 0.481163
vt 0.997538 0.481163
vt 0.795664 0.518836
vt 0.795664 0.354582
vt 1.000000 0.240582
vt 0.846919 0.176163
vt 0.824296 0.176163
vt 0.824296 0.296436
vt 0.846919 0.296436
vn 0.0000 0.0000 -1.0000
vn -1.0000 0.0000 0.0000
vn 0.0000 -1.0000 0.0000
vn 0.0000 1.0000 0.0000
vn 0.0001 1.0000 0.0001
vn 1.0000 0.0000 0.0000
vn 1.0000 0.0038 0.0087
vn -0.0040 1.0000 -0.0000
vn 0.0000 0.0000 1.0000
vn -0.9915 -0.1296 -0.0078
vn 0.9817 0.1902 0.0110
vn -0.2107 -0.9758 0.0589
vn 0.0001 1.0000 -0.0001
vn 1.0000 0.0038 -0.0087
vn -0.9915 -0.1296 0.0078
vn 0.9817 0.1902 -0.0110
vn -0.2107 -0.9758 -0.0589
usemtl Material
s off
f 1/1/1 3/2/1 6/3/1 5/4/1
f 43/5/2 44/6/2 3/7/2 4/8/2
f 4/9/1 3/2/1 1/1/1 2/10/1
f 1/1/1 5/4/1 8/11/1 7/12/1
f 48/13/3 7/14/3 27/15/3 70/16/3
f 40/17/3 1/18/3 7/14/3 48/13/3
f 9/19/1 13/20/1 10/21/1 11/22/1 12/23/1
f 52/24/4 12/25/4 11/26/4 51/27/4
f 13/28/1 5/4/1 26/29/1 10/30/1
f 6/31/2 47/32/2 50/33/2 10/34/2 26/35/2
f 10/34/2 50/33/2 51/36/2 11/37/2
f 5/38/5 46/39/5 49/40/5 8/41/5
f 3/7/2 44/6/2 47/32/2 6/31/2
f 2/42/6 1/43/6 40/44/6 45/45/6
f 4/46/3 2/47/3 45/48/3 43/49/3
f 12/50/7 52/51/7 54/52/7 14/53/7
f 14/54/8 54/55/8 16/56/8 15/57/8
f 15/58/9 16/59/9 18/60/9 17/61/9
f 17/61/9 18/60/9 20/62/9 19/63/9
f 21/64/10 19/65/10 20/66/10 61/67/10
f 46/68/11 5/69/11 25/70/11 22/71/11
f 22/72/12 25/73/12 23/74/12 24/75/12
f 26/29/1 5/4/1 6/3/1
f 70/76/6 27/77/6 28/78/6 71/79/6
f 7/12/1 8/11/1 28/80/1 27/81/1
f 8/41/4 49/40/4 71/82/4 28/83/4
f 29/84/9 33/85/9 34/86/9 31/87/9
f 43/5/2 32/88/2 31/89/2 44/6/2
f 32/90/9 30/91/9 29/84/9 31/87/9
f 29/84/9 35/92/9 36/93/9 33/85/9
f 48/13/3 70/16/3 68/94/3 35/95/3
f 40/17/3 48/13/3 35/95/3 29/96/3
f 37/97/9 41/98/9 39/99/9 38/100/9 42/101/9
f 52/24/4 51/27/4 39/102/4 41/103/4
f 42/104/9 38/105/9 67/106/9 33/85/9
f 34/107/2 67/108/2 38/109/2 50/33/2 47/32/2
f 38/109/2 39/110/2 51/36/2 50/33/2
f 33/111/13 36/112/13 49/40/13 46/39/13
f 31/89/2 34/107/2 47/32/2 44/6/2
f 30/113/6 45/45/6 40/44/6 29/114/6
f 32/115/3 43/49/3 45/48/3 30/116/3
f 41/117/14 53/118/14 54/52/14 52/51/14
f 53/119/8 55/120/8 56/121/8 54/55/8
f 55/122/9 57/123/9 58/124/9 56/125/9
f 57/123/9 59/126/9 60/127/9 58/124/9
f 62/128/15 61/67/15 60/129/15 59/130/15
f 46/68/16 63/131/16 66/132/16 33/133/16
f 63/134/17 65/135/17 64/136/17 66/137/17
f 67/106/9 34/86/9 33/85/9
f 70/76/6 71/79/6 69/138/6 68/139/6
f 35/92/9 68/140/9 69/141/9 36/93/9
f 36/112/4 69/142/4 71/82/4 49/40/4
f 49/143/1 71/144/1 70/145/1 48/146/1
